<svg xmlns="http://www.w3.org/2000/svg" viewBox="0 0 100 100">
  <rect width="100" height="100" rx="20" fill="#05080f"/>
  <polygon points="50,18 55,30 50,42 45,30" fill="#E8531E" transform="rotate(0 50 50)"/>
  <polygon points="50,18 55,30 50,42 45,30" fill="#E8531E" transform="rotate(45 50 50)"/>
  <polygon points="50,18 55,30 50,42 45,30" fill="#E8531E" transform="rotate(90 50 50)"/>
  <polygon points="50,18 55,30 50,42 45,30" fill="#E8531E" transform="rotate(135 50 50)"/>
  <polygon points="50,18 55,30 50,42 45,30" fill="#E8531E" transform="rotate(180 50 50)"/>
  <polygon points="50,18 55,30 50,42 45,30" fill="#E8531E" transform="rotate(225 50 50)"/>
  <polygon points="50,18 55,30 50,42 45,30" fill="#E8531E" transform="rotate(270 50 50)"/>
  <polygon points="50,18 55,30 50,42 45,30" fill="#E8531E" transform="rotate(315 50 50)"/>
  <circle cx="50" cy="50" r="6" fill="#E8531E"/>
</svg>
